<?xml version="1.0" encoding="UTF-8" standalone="no"?><!DOCTYPE svg PUBLIC "-//W3C//DTD SVG 1.1//EN" "http://www.w3.org/Graphics/SVG/1.1/DTD/svg11.dtd"><svg width="100%" height="100%" viewBox="0 0 12 12" version="1.1" xmlns="http://www.w3.org/2000/svg" xmlns:xlink="http://www.w3.org/1999/xlink" xml:space="preserve" xmlns:serif="http://www.serif.com/" style="fill-rule:evenodd;clip-rule:evenodd;stroke-linejoin:round;stroke-miterlimit:2;"><g><path d="M2.022,12l9.979,0l0,-9.979c0,0 0,-2.021 -2.022,-2.021l-7.958,0c0,0 -2.021,0 -2.021,2.021l0,7.959c0,0 0,2.02 2.022,2.02Z" style="fill:#fff;fill-rule:nonzero;"/><path d="M8.423,6.016c0.382,-0.435 0.652,-0.911 0.767,-1.357c0.065,-0.248 0.079,-0.489 0.038,-0.709c-0.187,-0.968 -1.426,-1.154 -2.773,-0.419l-0.185,-0.956l-1.425,0.787l0.23,1.198c0.15,-0.092 0.296,-0.151 0.43,-0.166c0.454,-0.047 0.581,0.448 0.287,1.104c-0.105,0.232 -0.248,0.454 -0.411,0.647l0.27,1.404l0.001,0.002l0.003,0.026l0.001,0c0.207,0.95 1.447,1.125 2.793,0.383c1.329,-0.735 2.265,-2.093 2.127,-3.064c-0.054,0.39 -0.437,0.868 -0.951,1.151c-0.547,0.301 -1.051,0.28 -1.201,-0.027c0,-0.002 -0.001,-0.002 -0.001,-0.004Z" style="fill:#d30e4c;fill-rule:nonzero;"/><path d="M4.435,6.775c-0.453,0.045 -0.582,-0.452 -0.288,-1.109c0.119,-0.261 0.288,-0.507 0.477,-0.715l-0.257,-1.324l-2.805,1.548l0.811,4.214l2.805,-1.547l-0.246,-1.282c-0.171,0.119 -0.342,0.198 -0.497,0.215Z" style="fill:#d30e4c;fill-rule:nonzero;"/></g></svg>